Coordinates
nRows=177
nColumns=2
inDegrees=yes
endheader
time	ankle_angle_r	
3.93725	 19.546668	
3.99974	 19.593549	
4.06224	 19.624977	
4.12474	 19.635846	
4.18723	 19.640119	
4.24973	 19.610806	
4.31222	 19.577549	
4.37472	 19.590948	
4.43722	 19.637870	
4.49971	 19.690249	
4.56221	 19.660729	
4.6247	 19.591935	
4.6872	 19.600571	
4.7497	 19.596871	
4.81219	 19.564597	
4.87469	 19.578762	
4.93718	 19.595875	
4.99968	 19.593240	
5.06218	 19.568385	
5.12467	 19.539812	
5.18717	 19.526155	
5.24966	 19.497724	
5.31216	 19.515014	
5.37466	 19.589967	
5.43715	 19.617382	
5.49965	 19.623796	
5.56214	 19.657307	
5.62464	 19.661076	
5.68714	 19.634412	
5.74963	 19.650714	
5.81213	 19.723591	
5.87462	 19.753058	
5.93712	 19.703704	
5.99962	 19.651347	
6.06211	 19.630371	
6.12461	 19.632113	
6.1871	 19.624416	
6.2496	 19.628382	
6.3121	 19.680296	
6.37459	 19.702077	
6.43709	 19.685776	
6.49958	 19.685035	
6.56208	 19.674740	
6.62458	 19.664813	
6.68707	 19.644143	
6.74957	 19.621738	
6.81206	 19.664272	
6.87456	 19.699353	
6.93706	 19.659982	
6.99955	 19.590682	
7.06205	 19.557681	
7.12454	 19.597306	
7.18704	 19.621302	
7.24954	 19.629572	
7.31203	 19.708768	
7.37453	 19.763810	
7.43702	 19.718986	
7.49952	 19.632195	
7.56202	 19.588657	
7.62451	 19.616015	
7.68701	 19.610034	
7.7495	 19.575850	
7.812	 19.622610	
7.8745	 19.691461	
7.93699	 19.693270	
7.99949	 19.642669	
8.06198	 19.612659	
8.12448	 19.630098	
8.18698	 19.629725	
8.24947	 19.631382	
8.31197	 19.663525	
8.37446	 19.678532	
8.43696	 19.670555	
8.49946	 19.616105	
8.56195	 19.571758	
8.62445	 19.603328	
8.68694	 19.607697	
8.74944	 19.604929	
8.81194	 19.660654	
8.87443	 19.701502	
8.93693	 19.731837	
8.99942	 19.730444	
9.06192	 19.654526	
9.12442	 19.591089	
9.18691	 19.578692	
9.24941	 19.585852	
9.3119	 19.581089	
9.3744	 19.558331	
9.4369	 19.564620	
9.49939	 19.562705	
9.56189	 19.532003	
9.62438	 19.529661	
9.68688	 19.515387	
9.74938	 19.511509	
9.81187	 19.568129	
9.87437	 19.620608	
9.93686	 19.636121	
9.99936	 19.603247	
10.0619	 19.579316	
10.1244	 19.606609	
10.1868	 19.609635	
10.2493	 19.623635	
10.3118	 19.684537	
10.3743	 19.733321	
10.4368	 19.757025	
10.4993	 19.720576	
10.5618	 19.649908	
10.6243	 19.588997	
10.6868	 19.524094	
10.7493	 19.537394	
10.8118	 19.602986	
10.8743	 19.607700	
10.9368	 19.587184	
10.9993	 19.552458	
11.0618	 19.511986	
11.1243	 19.509531	
11.1868	 19.515927	
11.2493	 19.541874	
11.3118	 19.595741	
11.3743	 19.625105	
11.4368	 19.618547	
11.4993	 19.620873	
11.5618	 19.636235	
11.6243	 19.594851	
11.6868	 19.588092	
11.7492	 19.709314	
11.8117	 19.775763	
11.8742	 19.719230	
11.9367	 19.650738	
11.9992	 19.632436	
12.0617	 19.680590	
12.1242	 19.697683	
12.1867	 19.671320	
12.2492	 19.668825	
12.3117	 19.663530	
12.3742	 19.669609	
12.4367	 19.641834	
12.4992	 19.594381	
12.5617	 19.622357	
12.6242	 19.620559	
12.6867	 19.611998	
12.7492	 19.682006	
12.8117	 19.701366	
12.8742	 19.686854	
12.9367	 19.685516	
12.9992	 19.641731	
13.0617	 19.620678	
13.1242	 19.639625	
13.1867	 19.655490	
13.2492	 19.663059	
13.3116	 19.658064	
13.3741	 19.679179	
13.4366	 19.680299	
13.4991	 19.620003	
13.5616	 19.595680	
13.6241	 19.629343	
13.6866	 19.718053	
13.7491	 19.811563	
13.8116	 19.765560	
13.8741	 19.667487	
13.9366	 19.637969	
13.9991	 19.622091	
14.0616	 19.615138	
14.1241	 19.600523	
14.1866	 19.613238	
14.2491	 19.688695	
14.3116	 19.711342	
14.3741	 19.687698	
14.4366	 19.655197	
14.4991	 19.595244	
14.5616	 19.583708	
14.6241	 19.601201	
14.6866	 19.625463	
14.7491	 19.686424	
14.8116	 19.699121	
14.874	 19.687911	
14.9365	 19.759961	
